<svg xmlns="http://www.w3.org/2000/svg" viewBox="0 0 350 350" width="512" height="512"><path d="M175 0C78.343 0 0 78.343 0 175c0 96.656 78.343 175 175 175 96.656 0 175-78.344 175-175C350 78.343 271.656 0 175 0zm83.738 189.05l-104.386 71.812c-2.904 1.99-6.284 3.006-9.673 3.006-2.73 0-5.437-.648-7.93-1.95-5.606-2.966-9.126-8.778-9.126-15.104V103.188c0-6.326 3.52-12.14 9.125-15.104 5.604-2.94 12.376-2.535 17.602 1.055l104.386 71.81c4.62 3.18 7.387 8.44 7.387 14.05 0 5.61-2.767 10.87-7.387 14.05z" fill="#fff"/></svg>
